<?xml version="1.0" standalone="no"?>
<!DOCTYPE svg PUBLIC "-//W3C//DTD SVG 20010904//EN"
 "http://www.w3.org/TR/2001/REC-SVG-20010904/DTD/svg10.dtd">
<svg version="1.0" xmlns="http://www.w3.org/2000/svg"
 width="1024.000000pt" height="1024.000000pt" viewBox="0 0 1024.000000 1024.000000"
 preserveAspectRatio="xMidYMid meet">
<metadata>
Created by potrace 1.16, written by Peter Selinger 2001-2019
</metadata>
<g transform="translate(0.000000,1024.000000) scale(0.100000,-0.100000)"
fill="#000000" stroke="none">
<path d="M4940 8229 c-170 -13 -332 -35 -365 -49 -11 -5 -40 -11 -65 -14 -98
-12 -135 -18 -144 -27 -6 -5 -23 -9 -38 -9 -16 0 -36 -4 -46 -9 -9 -5 -37 -15
-62 -21 -50 -14 -95 -28 -125 -40 -11 -4 -36 -13 -55 -20 -19 -7 -54 -21 -77
-31 -24 -11 -46 -19 -50 -19 -21 0 -349 -165 -359 -181 -2 -5 -22 -16 -42 -26
-34 -15 -166 -102 -283 -185 -70 -50 -163 -132 -275 -243 -109 -108 -275 -295
-309 -347 -5 -8 -43 -63 -82 -121 -40 -59 -73 -111 -73 -117 0 -5 -4 -10 -9
-10 -5 0 -11 -8 -15 -17 -5 -18 -19 -43 -67 -118 -25 -40 -72 -135 -104 -210
-9 -22 -28 -62 -40 -90 -13 -27 -29 -68 -36 -90 -7 -22 -17 -44 -21 -49 -4 -6
-8 -20 -8 -32 0 -13 -4 -26 -10 -29 -5 -3 -10 -17 -10 -30 0 -13 -4 -27 -10
-30 -5 -3 -10 -19 -10 -35 0 -16 -4 -31 -9 -34 -5 -3 -11 -20 -14 -38 -4 -18
-9 -49 -12 -68 -4 -19 -10 -44 -15 -55 -5 -11 -11 -38 -15 -60 -3 -22 -10 -65
-16 -95 -22 -122 -51 -354 -53 -421 0 -26 5 -53 13 -63 15 -18 86 -23 96 -6 3
6 46 10 94 10 99 0 103 2 140 84 20 43 64 108 96 141 36 36 211 155 229 155 8
0 18 5 21 10 3 6 17 10 30 10 13 0 27 5 30 10 3 6 19 10 35 10 16 0 32 5 35
10 3 6 23 10 44 10 20 0 42 5 48 11 17 17 357 -2 378 -22 5 -5 22 -9 37 -9 15
0 28 -5 28 -10 0 -6 11 -8 25 -4 18 4 27 1 31 -10 3 -9 10 -13 15 -10 10 6 32
-42 31 -68 0 -9 -18 -35 -39 -56 -22 -22 -49 -62 -62 -89 -13 -26 -27 -56 -32
-65 -5 -10 -9 -27 -9 -37 0 -11 -4 -23 -10 -26 -5 -3 -10 -19 -10 -36 0 -16
-4 -29 -8 -29 -5 0 -15 -23 -22 -51 -8 -27 -18 -52 -22 -55 -4 -3 -8 -16 -8
-30 0 -13 -4 -32 -9 -42 -15 -29 -28 -65 -42 -112 -7 -25 -16 -49 -21 -55 -4
-5 -8 -17 -8 -27 0 -9 -11 -38 -25 -62 -14 -25 -38 -70 -54 -101 -72 -139
-216 -305 -308 -353 -12 -7 -27 -18 -35 -25 -7 -7 -33 -19 -58 -26 -25 -7 -55
-18 -66 -23 -25 -12 -351 -15 -409 -4 -35 6 -42 4 -53 -14 -9 -16 -10 -25 -2
-35 6 -7 7 -20 4 -30 -4 -11 -2 -22 7 -29 15 -12 30 -41 49 -96 7 -19 23 -57
35 -85 39 -85 53 -119 66 -157 7 -21 17 -38 21 -38 4 0 8 -9 8 -20 0 -11 5
-20 10 -20 6 0 10 -9 10 -19 0 -11 5 -23 11 -26 6 -4 8 -13 5 -21 -3 -8 1 -17
9 -20 8 -4 15 -12 15 -20 0 -8 4 -14 8 -14 5 0 24 -29 43 -65 18 -36 37 -65
41 -65 5 0 8 -9 8 -20 0 -11 5 -20 10 -20 6 0 10 -6 10 -14 0 -8 4 -16 8 -18
5 -1 24 -25 43 -52 19 -27 47 -67 63 -90 16 -23 32 -43 35 -46 4 -3 17 -20 30
-38 33 -47 83 -103 189 -207 50 -50 92 -98 92 -105 0 -7 2 -11 5 -8 7 7 50
-29 130 -109 35 -35 68 -63 74 -63 5 0 21 -10 33 -22 26 -25 115 -88 125 -88
3 0 13 -9 23 -20 9 -11 38 -29 63 -40 25 -11 59 -31 74 -43 72 -59 135 -95
156 -89 11 3 17 -1 17 -12 0 -10 6 -13 15 -10 8 4 15 1 15 -4 0 -13 59 -44 70
-37 4 3 11 -2 14 -11 3 -8 10 -13 15 -10 5 4 15 1 23 -6 19 -18 97 -58 114
-58 8 0 22 -4 32 -9 9 -5 29 -14 45 -20 15 -6 39 -16 55 -22 15 -6 35 -15 44
-20 10 -5 29 -9 42 -9 14 0 28 -4 31 -10 3 -5 19 -10 35 -10 16 0 32 -5 35
-11 4 -5 17 -9 28 -8 12 2 32 -2 44 -9 12 -7 30 -12 40 -12 11 0 23 -4 29 -9
9 -9 26 -12 144 -27 30 -3 60 -11 66 -16 7 -5 37 -8 68 -7 30 1 61 -3 68 -9
18 -14 156 -23 373 -24 166 -1 267 6 465 32 141 18 165 22 174 31 6 5 25 9 42
9 18 0 36 5 39 10 3 6 21 10 40 10 19 0 37 5 40 10 3 6 19 10 35 10 16 0 32 4
35 10 3 6 19 10 35 10 16 0 32 5 35 10 3 6 17 10 30 10 13 0 27 5 30 10 3 6
15 10 26 10 19 0 28 4 76 28 13 7 30 12 38 12 8 0 23 4 33 9 23 12 111 51 142
63 14 6 34 15 44 20 115 60 169 89 214 116 29 18 57 32 62 32 6 0 10 5 10 10
0 6 6 10 14 10 7 0 19 7 26 15 7 9 28 23 46 31 19 9 34 20 34 25 0 5 6 9 13 9
7 0 26 14 42 30 16 17 32 30 37 30 10 0 91 61 138 104 19 17 45 39 57 47 49
34 293 281 380 384 64 76 173 225 173 235 0 6 5 10 10 10 6 0 10 4 10 10 0 5
23 43 50 84 28 41 50 77 50 81 0 3 13 25 28 48 15 23 33 53 39 67 6 14 27 59
46 100 34 72 59 129 78 178 23 57 32 78 40 94 5 10 9 27 9 37 0 11 5 23 10 26
6 3 10 19 10 35 0 16 5 32 10 35 6 3 10 17 10 30 0 13 5 27 10 30 6 3 10 19
10 35 0 16 4 31 9 34 5 3 11 18 14 33 4 16 11 51 17 78 6 28 14 67 17 88 3 20
9 40 14 43 5 3 9 32 9 64 0 32 5 62 10 65 6 3 10 26 10 50 0 24 5 47 10 50 6
3 10 31 10 61 l0 54 -174 0 c-95 0 -186 4 -202 9 -16 5 -49 14 -74 22 -25 7
-49 16 -54 21 -6 4 -23 8 -38 8 -15 0 -28 5 -28 10 0 6 -11 10 -24 10 -14 0
-28 5 -31 10 -3 6 -15 10 -26 10 -10 0 -27 4 -37 9 -59 30 -148 40 -194 22
-13 -5 -41 -14 -63 -20 -22 -5 -50 -13 -62 -16 -34 -9 -53 -33 -53 -65 0 -21
13 -41 48 -75 62 -62 129 -108 144 -99 7 4 8 3 4 -4 -6 -11 6 -16 26 -13 5 0
7 -5 5 -12 -1 -6 4 -11 11 -9 7 1 23 -8 35 -20 37 -38 107 -69 172 -75 65 -6
82 -15 102 -50 11 -20 9 -26 -16 -55 -28 -32 -38 -36 -166 -70 -22 -5 -48 -14
-57 -19 -10 -5 -29 -9 -42 -9 -14 0 -28 -4 -31 -10 -8 -13 -278 -13 -319 -1
-17 5 -51 15 -76 22 -25 7 -57 21 -72 31 -14 10 -29 18 -32 18 -28 0 -170 134
-198 188 -20 37 -23 92 -9 120 19 35 51 112 51 122 0 13 34 72 80 139 63 93
231 241 274 241 8 0 18 5 21 10 3 6 17 10 30 10 13 0 27 5 30 10 3 6 23 10 44
10 20 0 42 5 48 11 6 6 62 8 159 6 156 -5 221 -13 241 -29 7 -6 19 -8 27 -5 8
3 17 -1 20 -9 3 -8 12 -14 20 -14 12 0 44 -14 118 -51 10 -5 90 -9 179 -9 130
0 163 3 176 15 12 13 14 36 9 128 -3 61 -10 144 -16 182 -6 39 -13 90 -16 115
-3 25 -10 49 -15 55 -5 5 -9 25 -9 45 0 20 -4 40 -9 46 -5 5 -12 29 -15 54 -9
81 -18 120 -27 126 -5 3 -9 16 -9 29 0 13 -4 27 -10 30 -5 3 -10 19 -10 35 0
16 -4 32 -10 35 -5 3 -10 17 -10 30 0 13 -4 27 -10 30 -5 3 -10 15 -10 26 0
10 -4 28 -10 39 -5 11 -14 29 -20 40 -5 11 -10 27 -10 35 0 8 -6 15 -14 15 -9
0 -12 8 -8 25 2 15 0 25 -7 25 -6 0 -11 7 -11 15 0 8 -9 30 -20 50 -11 20 -20
42 -20 50 0 8 -4 15 -10 15 -5 0 -10 6 -10 14 0 15 -49 112 -78 154 -10 15
-22 35 -25 45 -4 11 -12 15 -18 11 -8 -4 -9 -3 -5 5 4 6 0 14 -8 17 -9 3 -14
10 -11 14 5 9 -70 126 -99 155 -9 9 -16 20 -16 24 0 5 -20 30 -45 56 -25 27
-43 50 -41 52 2 3 -17 26 -42 53 -26 27 -67 74 -92 105 -25 32 -51 62 -58 69
-8 6 -35 31 -61 56 -96 93 -181 170 -186 170 -5 0 -58 46 -101 88 -7 6 -15 12
-19 12 -3 0 -20 13 -38 30 -18 16 -35 30 -39 30 -4 0 -16 6 -25 14 -52 43
-114 86 -123 86 -6 0 -10 3 -10 8 0 4 -15 13 -32 21 -18 8 -35 17 -38 20 -16
19 -381 201 -445 222 -22 7 -44 17 -50 21 -5 4 -19 8 -31 8 -13 0 -26 5 -29
10 -3 6 -15 10 -26 10 -10 0 -27 4 -37 9 -30 15 -149 51 -170 51 -12 0 -23 4
-26 9 -3 5 -20 11 -38 15 -18 3 -60 10 -93 16 -33 5 -82 15 -110 21 -99 21
-420 48 -555 47 -52 -1 -142 -5 -200 -9z m595 -369 c50 -5 108 -12 130 -14 22
-3 60 -12 85 -22 42 -16 90 -27 168 -41 18 -3 35 -9 38 -14 3 -5 16 -9 29 -9
13 0 27 -4 30 -10 3 -5 17 -10 30 -10 13 0 27 -4 30 -10 3 -5 15 -10 26 -10
10 0 27 -4 37 -9 18 -9 62 -28 97 -41 11 -5 50 -22 88 -39 37 -18 72 -29 77
-26 5 3 11 1 15 -5 3 -5 15 -10 26 -10 11 0 22 -6 25 -14 3 -8 19 -20 35 -26
16 -7 29 -17 29 -22 0 -6 6 -8 14 -5 8 3 17 -1 20 -9 3 -8 12 -14 19 -14 8 0
22 -9 32 -20 10 -11 23 -20 30 -20 7 0 20 -9 31 -21 10 -11 26 -18 36 -16 10
3 16 2 13 -3 -6 -9 33 -45 41 -37 3 3 22 -10 42 -29 19 -19 37 -32 40 -29 3 2
13 -7 24 -21 11 -13 33 -31 49 -39 16 -9 49 -35 74 -59 25 -24 45 -42 45 -38
0 3 15 -12 33 -33 17 -21 73 -80 122 -131 98 -100 97 -99 142 -164 17 -25 40
-54 52 -64 11 -11 21 -25 21 -33 0 -7 5 -13 10 -13 6 0 10 -7 10 -15 0 -8 3
-15 8 -15 7 0 17 -15 46 -77 9 -17 21 -37 29 -45 19 -19 70 -97 95 -143 44
-84 133 -279 152 -335 7 -19 16 -44 20 -55 18 -42 49 -142 60 -195 7 -30 16
-64 20 -75 4 -11 14 -40 21 -64 12 -41 12 -45 -9 -61 -12 -10 -22 -23 -22 -28
0 -6 -23 -2 -52 9 -29 10 -62 19 -73 19 -12 0 -26 5 -32 11 -16 16 -315 18
-334 2 -8 -7 -39 -13 -69 -15 -48 -3 -55 0 -66 20 -6 13 -16 28 -22 34 -6 6
-8 23 -5 38 3 15 0 31 -6 34 -6 4 -11 18 -11 31 0 13 -4 27 -10 30 -5 3 -10
15 -10 25 0 10 -3 20 -8 22 -4 2 -23 34 -42 72 -19 39 -49 84 -65 102 -17 18
-29 36 -27 42 1 5 -17 26 -42 47 -24 22 -42 45 -39 52 3 7 0 13 -7 13 -7 0
-36 24 -64 53 -84 84 -121 114 -134 109 -7 -2 -12 1 -12 7 0 6 -6 11 -12 11
-7 0 -40 14 -73 30 -33 17 -67 30 -77 30 -9 0 -19 4 -22 9 -20 32 -432 32
-452 0 -3 -5 -14 -9 -25 -9 -10 0 -27 -4 -37 -9 -9 -5 -35 -17 -57 -28 -68
-33 -87 -46 -176 -116 -94 -74 -212 -198 -276 -291 -23 -34 -55 -79 -71 -101
-15 -22 -35 -55 -42 -73 -8 -17 -17 -32 -20 -32 -5 0 -45 -79 -120 -230 -4 -8
-13 -40 -20 -70 -8 -30 -22 -64 -32 -74 -17 -20 -18 -20 -41 2 -13 12 -26 20
-29 17 -3 -3 -3 6 -1 20 4 17 0 27 -11 31 -10 4 -14 13 -11 24 3 9 -13 51 -35
95 -22 43 -40 84 -40 91 0 8 -3 14 -8 14 -4 0 -13 15 -21 33 -8 17 -27 51 -43
75 -15 24 -28 45 -28 47 0 2 -22 35 -50 72 -27 37 -62 85 -77 106 -39 53 -224
237 -239 237 -7 0 -14 4 -16 8 -4 11 -94 72 -106 72 -6 0 -12 3 -14 8 -3 6
-114 63 -163 82 -174 68 -511 69 -690 0 -44 -17 -160 -75 -163 -82 -2 -5 -8
-8 -13 -8 -11 0 -110 -65 -174 -114 -56 -43 -116 -104 -160 -162 -64 -84 -59
-82 -195 -104 -30 -5 -72 -12 -93 -16 -20 -3 -40 -10 -43 -15 -3 -5 -15 -9
-28 -9 -13 0 -38 -11 -57 -24 -19 -14 -50 -33 -69 -42 -19 -10 -48 -26 -63
-37 -15 -10 -34 -17 -41 -14 -25 10 -28 55 -6 99 11 23 20 48 20 55 0 7 4 21
9 31 19 36 51 112 51 122 0 6 4 18 9 28 5 9 13 28 19 42 40 102 133 286 173
342 11 14 19 29 19 32 0 4 5 12 10 19 6 7 25 35 42 62 18 28 35 52 38 55 3 3
17 21 30 40 13 19 27 37 30 40 3 3 17 21 30 40 61 89 279 319 372 393 26 21
53 43 60 50 7 7 42 34 78 60 36 27 73 55 83 63 9 8 21 14 26 14 4 0 16 9 26
20 10 11 22 20 28 20 5 0 21 8 35 19 70 49 291 161 319 161 7 0 13 5 13 10 0
6 7 10 15 10 8 0 23 4 33 9 9 5 31 14 47 21 17 7 38 16 47 21 10 5 27 9 37 9
11 0 23 5 26 10 3 6 19 10 35 10 16 0 32 5 35 10 3 6 17 10 30 10 13 0 27 5
30 10 3 6 19 10 35 10 16 0 31 4 34 9 3 5 20 11 38 14 18 3 56 11 83 17 94 21
160 31 264 40 57 5 106 12 109 15 10 10 537 -3 637 -15z m-1425 -1719 c25 -7
54 -13 65 -14 11 -1 23 -6 26 -10 3 -4 16 -9 27 -10 12 -1 22 -5 22 -9 0 -4 6
-8 14 -8 8 0 16 -7 20 -15 3 -8 14 -15 25 -15 25 0 241 -213 241 -238 0 -4 8
-17 18 -28 9 -10 27 -39 39 -64 12 -25 31 -52 42 -60 12 -8 21 -20 21 -26 0
-7 3 -14 8 -16 4 -1 18 -25 32 -53 14 -27 27 -52 30 -55 3 -3 16 -30 29 -60
40 -94 63 -144 72 -162 5 -10 9 -27 9 -38 0 -11 5 -20 11 -20 7 0 9 -10 7 -25
-3 -13 -1 -22 4 -19 4 3 11 -8 14 -25 4 -17 10 -31 15 -31 5 0 9 -8 9 -17 0
-16 14 -67 31 -108 7 -19 12 -41 26 -125 3 -19 9 -37 12 -40 4 -3 13 -30 20
-60 17 -73 32 -121 42 -142 5 -10 9 -25 9 -34 0 -9 14 -29 31 -45 27 -25 39
-29 89 -29 51 0 61 3 91 33 40 38 59 69 59 96 0 11 5 23 10 26 6 3 10 19 10
35 0 16 5 32 10 35 6 3 10 21 10 40 0 19 5 37 10 40 6 3 10 19 10 35 0 16 5
32 10 35 6 3 10 19 10 35 0 16 5 32 10 35 6 3 10 17 10 30 0 13 5 27 10 30 6
3 10 17 10 30 0 13 5 27 10 30 6 3 10 15 10 26 0 10 4 27 9 37 5 9 13 28 19
42 5 14 20 48 32 75 12 28 26 59 30 70 28 76 141 283 186 343 19 23 40 57 49
75 8 18 31 50 50 72 19 22 35 43 35 47 0 11 71 80 138 134 44 36 83 57 130 72
137 41 224 53 237 32 3 -5 21 -10 40 -10 49 0 178 -70 225 -122 13 -16 30 -28
37 -28 6 0 14 -8 18 -19 5 -18 15 -31 71 -93 13 -15 24 -32 24 -38 0 -11 21
-51 31 -60 3 -3 13 -25 23 -50 24 -61 46 -111 58 -135 8 -14 8 -20 -1 -23 -6
-2 -11 -11 -11 -20 0 -19 -38 -62 -55 -62 -45 0 -268 -267 -316 -377 -8 -18
-17 -33 -21 -33 -5 0 -8 -4 -8 -10 0 -5 -12 -35 -26 -67 -67 -148 -81 -189
-99 -278 -13 -66 -17 -81 -25 -100 -21 -47 -37 -313 -36 -586 1 -248 0 -245
91 -234 59 8 112 8 210 3 l50 -3 3 215 c2 156 6 216 15 222 30 19 60 7 110
-45 29 -29 75 -63 102 -76 28 -13 58 -27 67 -32 10 -5 29 -9 42 -9 14 0 28 -4
31 -10 3 -5 25 -10 49 -10 23 0 47 -5 52 -10 7 -7 66 -9 170 -7 168 5 241 13
250 28 3 5 20 9 38 9 17 0 36 4 41 9 6 6 33 13 62 17 49 6 51 5 55 -17 3 -21
-19 -75 -42 -104 -5 -6 -32 -55 -60 -109 -28 -53 -69 -127 -90 -163 -22 -36
-40 -69 -40 -73 0 -5 -4 -10 -8 -12 -7 -2 -69 -87 -107 -146 -38 -59 -140
-181 -250 -300 -48 -53 -208 -194 -290 -258 -88 -68 -325 -221 -410 -264 -49
-25 -99 -51 -110 -57 -23 -12 -53 -25 -115 -48 -25 -9 -61 -23 -80 -32 -19 -8
-46 -20 -60 -25 -14 -6 -33 -14 -42 -19 -10 -5 -27 -9 -37 -9 -11 0 -22 -4
-25 -9 -3 -5 -18 -11 -33 -14 -16 -3 -48 -11 -73 -17 -42 -10 -61 -15 -177
-41 -108 -23 -167 -30 -348 -40 -200 -11 -538 0 -625 20 -47 10 -70 15 -160
32 -94 18 -260 63 -292 80 -10 5 -25 9 -33 9 -8 0 -37 9 -63 21 -55 24 -89 39
-117 49 -11 4 -49 21 -84 39 -35 17 -70 31 -77 31 -8 0 -14 5 -14 10 0 6 -7
10 -15 10 -8 0 -31 10 -52 21 -21 12 -63 36 -93 52 -30 17 -88 53 -128 81 -41
28 -81 56 -90 61 -17 10 -18 12 -71 58 -17 15 -34 27 -38 27 -5 0 -72 64 -151
143 -208 207 -246 248 -276 292 -41 62 -75 108 -98 133 -12 12 -18 22 -14 22
3 0 -15 33 -41 73 -27 39 -55 85 -63 101 -8 16 -34 50 -58 75 -37 39 -43 50
-38 76 10 46 29 59 85 56 27 -1 58 2 68 8 10 5 57 28 106 51 48 24 87 47 87
51 0 5 7 9 15 9 24 0 198 180 253 262 29 42 52 81 52 86 0 5 7 15 15 22 8 7
29 40 45 74 16 33 36 72 44 86 8 14 22 43 31 65 10 22 27 63 40 90 33 73 48
130 43 159 -3 14 -1 24 5 23 6 -1 13 7 15 18 5 25 31 55 47 55 29 0 42 -47 54
-195 7 -82 16 -193 22 -245 5 -52 8 -228 7 -391 -2 -270 0 -299 16 -324 16
-25 21 -26 64 -20 61 8 146 8 197 0 33 -5 44 -3 58 13 17 18 18 43 13 348 -3
181 -10 374 -16 429 -5 55 -13 129 -16 165 -3 36 -10 69 -15 75 -5 5 -9 26 -9
46 0 21 -4 41 -10 44 -5 3 -10 21 -10 40 0 19 -4 37 -10 40 -5 3 -10 21 -10
40 0 19 -4 37 -10 40 -5 3 -10 15 -10 26 0 10 -4 27 -9 37 -14 28 -29 65 -37
91 -3 13 -19 37 -35 52 -48 47 -53 73 -20 108 16 17 32 31 37 31 7 0 79 -32
152 -67 18 -9 45 -36 60 -60 15 -23 30 -43 33 -43 4 0 10 -16 13 -35 4 -19 12
-38 19 -42 11 -8 24 -28 47 -73 6 -11 15 -29 20 -40 6 -11 10 -29 10 -39 0
-11 5 -23 11 -26 5 -4 8 -12 6 -18 -2 -7 2 -18 10 -25 7 -7 13 -22 13 -33 0
-10 5 -19 10 -19 6 0 10 -11 10 -24 0 -14 5 -28 10 -31 6 -3 10 -22 10 -41 0
-19 5 -34 10 -34 6 0 10 -18 10 -39 0 -22 5 -43 10 -46 6 -3 10 -19 10 -36 0
-16 5 -29 10 -29 6 0 10 -9 10 -20 0 -10 4 -29 9 -42 5 -13 19 -50 31 -83 36
-95 44 -115 52 -115 5 0 8 -6 8 -14 0 -17 42 -100 53 -104 4 -2 7 -10 7 -18 0
-8 5 -14 10 -14 6 0 10 -7 10 -15 0 -8 5 -15 10 -15 6 0 10 -7 10 -15 0 -8 4
-15 9 -15 5 0 12 -11 15 -25 4 -14 13 -25 21 -25 8 0 15 -6 15 -13 0 -13 82
-97 95 -97 4 0 26 -17 50 -38 51 -44 97 -69 178 -91 20 -6 52 -15 70 -21 44
-13 314 -13 322 0 3 5 18 10 32 10 55 0 174 56 265 124 44 33 128 118 187 191
12 15 56 95 111 205 12 25 26 53 31 62 5 10 9 27 9 37 0 11 5 23 10 26 6 3 10
17 10 30 0 13 4 27 10 30 6 3 10 17 10 30 0 13 5 27 10 30 6 3 10 17 10 30 0
13 5 27 10 30 6 3 10 19 10 35 0 16 5 32 10 35 6 3 10 19 10 35 0 16 5 32 10
35 6 3 10 17 10 30 0 13 5 27 10 30 6 3 10 17 10 30 0 13 5 27 10 30 6 3 10
15 10 26 0 10 4 27 9 37 9 17 24 53 40 95 8 22 36 78 75 152 26 48 56 95 73
113 7 7 20 25 28 40 9 15 52 63 96 107 67 68 79 85 79 114 0 41 -60 106 -106
116 -16 3 -41 9 -56 14 -36 12 -113 -8 -163 -41 -56 -37 -135 -115 -175 -174
-19 -27 -37 -50 -42 -52 -4 -2 -8 -9 -8 -16 0 -7 -9 -21 -20 -31 -11 -10 -20
-24 -20 -32 0 -7 -7 -16 -15 -19 -8 -4 -13 -10 -10 -14 3 -4 -3 -25 -14 -47
-10 -21 -29 -60 -41 -88 -12 -27 -26 -58 -31 -67 -5 -10 -9 -24 -9 -32 0 -8
-10 -34 -21 -58 -12 -23 -25 -52 -29 -63 -20 -55 -30 -93 -30 -113 0 -11 -5
-34 -11 -49 -24 -58 -28 -71 -59 -183 -13 -47 -26 -82 -41 -112 -5 -10 -9 -25
-9 -33 0 -8 -4 -15 -10 -15 -5 0 -10 -6 -10 -13 0 -34 -82 -162 -139 -217 -22
-21 -67 -50 -120 -77 -39 -20 -59 -23 -167 -23 -71 0 -125 4 -129 10 -3 6 -15
10 -26 10 -10 0 -19 5 -19 10 0 6 -9 10 -20 10 -11 0 -20 5 -20 10 0 6 -6 10
-13 10 -7 0 -25 12 -39 28 -30 33 -138 199 -138 212 0 6 -5 20 -12 33 -24 48
-28 57 -28 77 0 11 -4 20 -9 20 -5 0 -12 16 -15 35 -3 19 -9 51 -12 70 -3 19
-10 38 -15 41 -5 3 -9 18 -9 34 0 16 -4 32 -10 35 -5 3 -10 17 -10 30 0 13 -4
27 -10 30 -5 3 -10 16 -10 27 0 27 -20 92 -50 163 -7 17 -17 41 -23 55 -5 14
-13 33 -18 42 -5 10 -9 23 -9 29 0 6 -13 29 -28 52 -15 23 -34 56 -42 72 -8
17 -26 48 -40 70 -14 22 -32 54 -40 70 -20 39 -157 178 -195 197 -47 23 -109
59 -120 69 -5 5 -24 9 -42 9 -18 0 -33 5 -33 11 0 7 -28 10 -77 9 -97 -2 -130
4 -159 27 -103 83 -147 113 -164 113 -10 0 -22 5 -25 10 -3 6 -21 10 -39 10
-20 0 -40 8 -50 19 -16 18 -17 22 -2 53 15 31 73 78 96 78 6 0 18 4 28 9 77
39 106 51 122 51 11 0 22 5 25 10 3 6 25 10 48 10 23 0 49 5 57 10 19 13 211
7 270 -9z"/>
<path d="M2910 5320 c-8 -4 -47 -18 -86 -30 -76 -24 -163 -80 -171 -111 -3
-10 -9 -19 -13 -19 -4 0 -11 -11 -14 -24 -3 -13 -22 -46 -41 -74 -19 -29 -35
-56 -35 -62 0 -5 -4 -10 -8 -10 -5 0 -14 -11 -20 -25 -6 -13 -28 -35 -49 -47
-73 -45 -105 -50 -276 -47 l-162 3 1 -59 c1 -33 5 -76 8 -95 4 -19 12 -66 18
-105 6 -38 16 -76 21 -82 12 -16 332 -19 342 -3 3 6 22 10 41 10 19 0 42 4 52
9 9 5 31 15 47 22 95 43 212 145 253 220 37 67 47 84 52 89 3 3 11 19 19 35 7
17 17 38 22 47 5 10 9 27 9 37 0 11 4 22 9 25 5 3 11 20 14 38 6 33 20 99 33
151 3 15 10 30 15 33 5 3 9 20 9 38 0 26 -5 35 -22 40 -30 8 -50 7 -68 -4z"/>
</g>
</svg>
